<?xml version="1.0" standalone="no"?>
<!DOCTYPE svg PUBLIC "-//W3C//DTD SVG 20010904//EN"
 "http://www.w3.org/TR/2001/REC-SVG-20010904/DTD/svg10.dtd">
<svg version="1.0" xmlns="http://www.w3.org/2000/svg"
 width="415.000000pt" height="54.000000pt" viewBox="0 0 415.000000 54.000000"
 preserveAspectRatio="xMidYMid meet">

<g transform="translate(0.000000,54.000000) scale(0.100000,-0.100000)"
fill="#000000" stroke="none">
<path d="M1816 470 c-16 -5 -42 -21 -57 -36 l-29 -28 0 32 0 32 -301 0 -300 0
3 -27 c3 -27 6 -28 61 -31 l57 -3 0 -164 0 -165 35 0 35 0 0 165 0 165 45 0
c33 0 45 -4 45 -15 0 -12 13 -15 55 -15 l55 0 0 -150 0 -150 50 0 50 0 0 150
0 150 43 0 44 0 -5 -79 c-6 -97 8 -139 58 -185 95 -86 251 -42 288 81 23 78 8
177 -35 225 -42 48 -128 68 -197 48z m82 -86 c31 -9 52 -53 52 -108 0 -59 -16
-92 -51 -107 -24 -9 -33 -9 -54 5 -50 33 -55 146 -9 193 25 25 28 26 62 17z"/>
<path d="M100 463 c1 -4 18 -91 38 -193 l38 -185 45 -3 46 -3 29 136 c16 74
32 135 37 135 4 0 7 -6 7 -12 0 -7 12 -68 27 -135 l28 -123 45 0 45 0 33 177
c19 98 36 186 38 196 4 14 -1 17 -30 17 -39 0 -34 15 -66 -180 -19 -112 -30
-158 -30 -119 0 8 -14 78 -32 157 l-32 142 -33 0 c-29 0 -33 -4 -42 -38 -11
-41 -60 -255 -62 -269 0 -4 -13 62 -27 147 l-27 155 -37 3 c-21 2 -38 0 -38
-5z"/>
<path d="M570 275 l0 -195 35 0 35 0 0 85 0 85 80 0 80 0 0 -85 0 -86 72 3 71
3 15 53 15 52 63 0 63 0 16 -55 c16 -54 17 -55 55 -55 l38 0 -63 193 -63 192
-44 3 -44 3 -61 -188 -61 -188 -1 188 -1 187 -35 0 -35 0 0 -75 0 -75 -80 0
-80 0 0 75 0 75 -35 0 -35 0 0 -195z m510 -22 c0 -9 -16 -13 -46 -13 -39 0
-46 3 -41 18 2 9 13 48 23 86 l19 69 22 -74 c13 -41 23 -80 23 -86z"/>
<path d="M2108 449 c-43 -22 -46 -29 -20 -52 16 -15 21 -15 38 -2 25 19 78 19
93 1 7 -8 11 -27 9 -43 -3 -24 -10 -30 -50 -43 -37 -12 -48 -20 -48 -36 0 -18
8 -22 42 -27 43 -6 78 -34 78 -63 0 -8 -10 -24 -21 -35 -17 -17 -29 -20 -61
-16 -22 3 -49 13 -60 23 -19 18 -20 18 -38 -6 -19 -25 -19 -25 3 -42 24 -20
80 -38 115 -38 60 0 132 58 132 107 0 26 -26 83 -38 83 -4 0 -14 4 -22 10 -12
7 -10 12 12 29 75 59 18 172 -86 171 -23 -1 -58 -10 -78 -21z"/>
<path d="M2350 275 l0 -195 73 0 c86 0 132 12 165 42 42 40 56 78 56 153 0
140 -60 195 -212 195 l-82 0 0 -195z m171 125 c35 -19 51 -67 47 -138 -4 -58
-8 -68 -36 -93 -24 -22 -42 -29 -72 -29 l-40 0 0 135 0 135 41 0 c22 0 49 -5
60 -10z"/>
<path d="M2660 275 l0 -195 50 0 50 0 0 64 0 63 57 6 c94 10 150 72 138 152
-12 79 -61 105 -200 105 l-95 0 0 -195z m188 109 c22 -15 29 -48 14 -71 -9
-14 -56 -33 -83 -33 -17 0 -19 7 -19 60 l0 60 33 0 c18 0 43 -7 55 -16z"/>
<path d="M2970 275 l0 -195 50 0 50 0 0 71 c0 67 1 70 23 67 16 -2 32 -22 57
-70 l35 -68 103 0 102 0 0 195 0 195 -50 0 -50 0 -2 -192 -3 -193 -42 75 c-40
72 -41 75 -22 88 46 32 62 108 33 163 -23 45 -67 59 -184 59 l-100 0 0 -195z
m194 109 c39 -39 3 -94 -61 -94 l-33 0 0 55 0 55 39 0 c23 0 46 -7 55 -16z"/>
<path d="M3420 276 l0 -196 46 0 46 0 -4 133 -3 132 66 -130 66 -130 47 -3 46
-3 0 195 0 196 -41 0 -40 0 3 -129 c2 -71 2 -128 0 -126 -2 1 -31 58 -66 126
l-64 124 -51 3 -51 3 0 -195z"/>
<path d="M3750 435 l0 -35 55 0 55 0 0 -160 0 -160 45 0 44 0 3 158 3 157 53
3 52 3 0 35 0 34 -155 0 -155 0 0 -35z"/>
</g>
</svg>
